<svg version="1.1" id="Layer_1" xmlns="http://www.w3.org/2000/svg" xmlns:xlink="http://www.w3.org/1999/xlink" x="0px" y="0px"
	 viewBox="0 0 1659 1080" style="enable-background:new 0 0 1659 1080;" xml:space="preserve">
<style type="text/css">
	.st0{clip-path:url(#SVGID_00000022540616749246265380000013322893043952093611_);}
	.st1{opacity:0.15;fill:none;stroke:#ffffff;stroke-width:2.0797;enable-background:new    ;}
</style>
<g>
	<defs>
		<rect id="SVGID_1_" width="1659" height="1080"/>
	</defs>
	<clipPath id="SVGID_00000105393870718568449740000009568927546962581409_">
		<use xlink:href="#SVGID_1_"  style="overflow:visible;"/>
	</clipPath>
	<g style="clip-path:url(#SVGID_00000105393870718568449740000009568927546962581409_);">
		<g>
			<g id="Layer_1_00000019679971798948319200000002293855181086246069_">
				<g transform="translate(-140.889 0)">
					<g>
						<line class="st1" x1="-66.7" y1="1169.5" x2="-66.7" y2="-89.5"/>
						<!-- <line class="st1" x1="24.3" y1="1169.5" x2="24.3" y2="-89.5"/> -->
						<line class="st1" x1="115.3" y1="1169.5" x2="115.3" y2="-89.5"/>
						<!-- <line class="st1" x1="206.3" y1="1169.5" x2="206.3" y2="-89.5"/> -->
						<line class="st1" x1="297.3" y1="1169.5" x2="297.3" y2="-89.5"/>
						<!-- <line class="st1" x1="388.3" y1="1169.5" x2="388.3" y2="-89.5"/> -->
					</g>
				</g>
			</g>
			<g>
				<line class="st1" x1="334.9" y1="1169.5" x2="334.9" y2="-89.5"/>
				<!-- <line class="st1" x1="425.9" y1="1169.5" x2="425.9" y2="-89.5"/> -->
				<line class="st1" x1="516.9" y1="1169.5" x2="516.9" y2="-89.5"/>
				<!-- <line class="st1" x1="607.9" y1="1169.5" x2="607.9" y2="-89.5"/> -->
				<line class="st1" x1="698.9" y1="1169.5" x2="698.9" y2="-89.5"/>
				<!-- <line class="st1" x1="789.9" y1="1169.5" x2="789.9" y2="-89.5"/> -->
			</g>
		</g>
		<g>
			<g id="Layer_1_00000118367427184184805310000011018270854601851317_">
				<g transform="translate(-140.889 0)">
					<g>
						<line class="st1" x1="1010" y1="1169.5" x2="1010" y2="-89.5"/>
						<!-- <line class="st1" x1="1101" y1="1169.5" x2="1101" y2="-89.5"/> -->
						<line class="st1" x1="1192" y1="1169.5" x2="1192" y2="-89.5"/>
						<!-- <line class="st1" x1="1283" y1="1169.5" x2="1283" y2="-89.5"/> -->
						<line class="st1" x1="1374" y1="1169.5" x2="1374" y2="-89.5"/>
						<!-- <line class="st1" x1="1465" y1="1169.5" x2="1465" y2="-89.5"/> -->
					</g>
				</g>
			</g>
			<g>
				<line class="st1" x1="1411.6" y1="1169.5" x2="1411.6" y2="-89.5"/>
				<!-- <line class="st1" x1="1502.6" y1="1169.5" x2="1502.6" y2="-89.5"/> -->
				<line class="st1" x1="1593.6" y1="1169.5" x2="1593.6" y2="-89.5"/>
				<!-- <line class="st1" x1="1684.6" y1="1169.5" x2="1684.6" y2="-89.5"/> -->
				<line class="st1" x1="1775.6" y1="1169.5" x2="1775.6" y2="-89.5"/>
				<!-- <line class="st1" x1="1866.6" y1="1169.5" x2="1866.6" y2="-89.5"/> -->
			</g>
		</g>
	</g>
</g>
</svg>
